<?xml version="1.0" encoding="UTF-8"?>
<!DOCTYPE svg PUBLIC "-//W3C//DTD SVG 1.1//EN" "http://www.w3.org/Graphics/SVG/1.1/DTD/svg11.dtd">
<!-- Creator: CorelDRAW 2021 (64 Bit) -->
<svg xmlns="http://www.w3.org/2000/svg" xml:space="preserve" width="15.2398mm" height="3.0515mm" version="1.1" style="shape-rendering:geometricPrecision; text-rendering:geometricPrecision; image-rendering:optimizeQuality; fill-rule:evenodd; clip-rule:evenodd"
viewBox="0 0 152.82 30.6"
 xmlns:xlink="http://www.w3.org/1999/xlink"
 xmlns:xodm="http://www.corel.com/coreldraw/odm/2003">
 <defs>
  <style type="text/css">
   <![CDATA[
    .fil0 {fill:#0B4BA2}
    .fil2 {fill:#FEFEFE;fill-rule:nonzero}
    .fil1 {fill:#2DB4E3;fill-opacity:0.678431}
   ]]>
  </style>
 </defs>
 <g id="Camada_x0020_1">
  <metadata id="CorelCorpID_0Corel-Layer"/>
  <rect class="fil0" transform="matrix(-0.727493 0.759297 0.554878 0.531637 11.243 -4.81715)" width="22.07" height="44.15" rx="2005.55" ry="2005.55"/>
  <path class="fil1" d="M36.69 3.56l0 0c4.42,4.61 4.26,11.99 -0.35,16.41l-7.74 7.41c-4.61,4.42 -11.99,4.26 -16.41,-0.35l-0 -0c-4.42,-4.61 -4.26,-11.99 0.35,-16.41l7.74 -7.41c4.61,-4.42 11.99,-4.26 16.41,0.35z"/>
  <polygon class="fil2" points="47.54,23.81 47.54,4.56 50.1,4.56 50.1,21.55 59.56,21.55 59.56,23.81 "/>
  <path id="_1" class="fil2" d="M62.31 7.25l0 -2.69 2.37 0 0 2.69 -2.37 0zm0 16.56l0 -13.95 2.37 0 0 13.95 -2.37 0z"/>
  <path id="_2" class="fil2" d="M68.85 23.81l0 -12.13 -2.1 0 0 -1.83 2.1 0 0 -1.48c0,-0.94 0.08,-1.63 0.25,-2.08 0.23,-0.61 0.62,-1.11 1.2,-1.49 0.57,-0.38 1.37,-0.57 2.4,-0.57 0.67,0 1.4,0.08 2.21,0.24l-0.35 2.07c-0.49,-0.09 -0.95,-0.13 -1.39,-0.13 -0.72,0 -1.22,0.15 -1.52,0.46 -0.3,0.3 -0.44,0.87 -0.44,1.71l0 1.28 2.72 0 0 1.83 -2.69 0 0 12.13 -2.37 0z"/>
  <path id="_3" class="fil2" d="M85.27 19.3l2.45 0.32c-0.38,1.42 -1.09,2.53 -2.13,3.31 -1.04,0.78 -2.37,1.18 -3.98,1.18 -2.03,0 -3.65,-0.63 -4.84,-1.88 -1.19,-1.25 -1.79,-3.01 -1.79,-5.27 0,-2.34 0.6,-4.16 1.81,-5.45 1.21,-1.29 2.77,-1.94 4.69,-1.94 1.86,0 3.38,0.63 4.56,1.9 1.18,1.27 1.77,3.05 1.77,5.35 0,0.14 -0.01,0.35 -0.01,0.63l-10.39 0c0.09,1.53 0.52,2.7 1.3,3.51 0.78,0.81 1.75,1.22 2.91,1.22 0.87,0 1.6,-0.23 2.21,-0.68 0.61,-0.46 1.1,-1.19 1.46,-2.19zm-7.74 -3.79l7.77 0c-0.1,-1.17 -0.4,-2.05 -0.89,-2.64 -0.75,-0.91 -1.73,-1.37 -2.92,-1.37 -1.08,0 -1.99,0.36 -2.73,1.09 -0.74,0.73 -1.14,1.7 -1.22,2.92z"/>
  <path id="_4" class="fil2" d="M90.95 23.81l0 -19.25 3.82 0 4.55 13.63c0.42,1.27 0.73,2.22 0.92,2.85 0.22,-0.7 0.56,-1.73 1.03,-3.09l4.63 -13.39 3.41 0 0 19.25 -2.45 0 0 -16.11 -5.62 16.11 -2.29 0 -5.56 -16.4 0 16.4 -2.45 0z"/>
  <path id="_5" class="fil2" d="M122.22 22.07c-0.88,0.75 -1.72,1.27 -2.54,1.58 -0.81,0.31 -1.68,0.46 -2.61,0.46 -1.53,0 -2.71,-0.37 -3.54,-1.12 -0.83,-0.74 -1.24,-1.7 -1.24,-2.86 0,-0.68 0.16,-1.3 0.47,-1.87 0.31,-0.56 0.72,-1.01 1.22,-1.35 0.51,-0.34 1.07,-0.6 1.7,-0.78 0.47,-0.12 1.17,-0.24 2.11,-0.35 1.91,-0.22 3.32,-0.5 4.22,-0.81 0.01,-0.32 0.01,-0.53 0.01,-0.61 0,-0.96 -0.22,-1.64 -0.67,-2.03 -0.6,-0.53 -1.51,-0.8 -2.7,-0.8 -1.12,0 -1.94,0.2 -2.47,0.59 -0.53,0.39 -0.92,1.08 -1.18,2.07l-2.31 -0.32c0.21,-0.99 0.56,-1.79 1.04,-2.4 0.48,-0.61 1.18,-1.08 2.1,-1.41 0.91,-0.33 1.97,-0.49 3.17,-0.49 1.19,0 2.16,0.14 2.91,0.42 0.74,0.28 1.3,0.63 1.64,1.06 0.35,0.43 0.6,0.96 0.74,1.61 0.08,0.4 0.12,1.13 0.12,2.17l0 3.14c0,2.19 0.05,3.58 0.15,4.16 0.09,0.59 0.29,1.15 0.58,1.68l-2.47 0c-0.24,-0.5 -0.39,-1.08 -0.46,-1.75zm-0.19 -5.24c-0.86,0.35 -2.15,0.64 -3.87,0.89 -0.98,0.14 -1.67,0.3 -2.07,0.47 -0.4,0.17 -0.71,0.43 -0.93,0.76 -0.22,0.34 -0.33,0.71 -0.33,1.12 0,0.62 0.24,1.15 0.72,1.56 0.48,0.42 1.18,0.63 2.1,0.63 0.91,0 1.72,-0.2 2.43,-0.6 0.71,-0.39 1.23,-0.94 1.56,-1.62 0.26,-0.53 0.38,-1.32 0.38,-2.35l0.01 -0.86z"/>
  <path id="_6" class="fil2" d="M127.12 19.65l2.34 -0.38c0.13,0.94 0.5,1.65 1.1,2.15 0.6,0.5 1.44,0.75 2.52,0.75 1.09,0 1.9,-0.22 2.42,-0.66 0.52,-0.44 0.79,-0.96 0.79,-1.56 0,-0.53 -0.24,-0.95 -0.71,-1.26 -0.33,-0.21 -1.14,-0.48 -2.42,-0.8 -1.73,-0.44 -2.93,-0.81 -3.6,-1.13 -0.67,-0.32 -1.17,-0.76 -1.52,-1.33 -0.34,-0.56 -0.52,-1.18 -0.52,-1.86 0,-0.62 0.14,-1.2 0.43,-1.73 0.29,-0.53 0.67,-0.97 1.16,-1.32 0.37,-0.27 0.87,-0.5 1.5,-0.68 0.64,-0.19 1.31,-0.28 2.04,-0.28 1.09,0 2.05,0.16 2.88,0.48 0.83,0.31 1.44,0.74 1.83,1.28 0.39,0.54 0.66,1.26 0.81,2.17l-2.31 0.32c-0.1,-0.73 -0.41,-1.3 -0.91,-1.7 -0.5,-0.41 -1.21,-0.61 -2.13,-0.61 -1.08,0 -1.86,0.18 -2.32,0.54 -0.46,0.36 -0.69,0.78 -0.69,1.26 0,0.3 0.09,0.58 0.29,0.83 0.19,0.25 0.49,0.46 0.9,0.63 0.24,0.09 0.93,0.29 2.08,0.6 1.67,0.44 2.83,0.81 3.5,1.09 0.66,0.28 1.18,0.7 1.56,1.24 0.38,0.54 0.57,1.21 0.57,2.02 0,0.78 -0.23,1.52 -0.69,2.22 -0.46,0.69 -1.12,1.23 -1.99,1.61 -0.87,0.38 -1.85,0.57 -2.94,0.57 -1.81,0 -3.19,-0.38 -4.14,-1.13 -0.95,-0.75 -1.56,-1.86 -1.82,-3.34z"/>
  <path id="_7" class="fil2" d="M141.5 23.81l0 -19.25 2.37 0 0 6.93c1.1,-1.29 2.48,-1.93 4.16,-1.93 1.03,0 1.92,0.2 2.68,0.61 0.76,0.41 1.3,0.97 1.63,1.68 0.33,0.72 0.49,1.76 0.49,3.12l0 8.83 -2.37 0 0 -8.82c0,-1.18 -0.25,-2.04 -0.76,-2.58 -0.51,-0.54 -1.23,-0.81 -2.16,-0.81 -0.69,0 -1.35,0.18 -1.96,0.54 -0.61,0.36 -1.05,0.86 -1.31,1.48 -0.26,0.62 -0.39,1.48 -0.39,2.57l0 7.62 -2.37 0z"/>
 </g>
</svg>
